<svg fill="none" height="40" viewBox="0 0 140 40" width="140" xmlns="http://www.w3.org/2000/svg"><path d="m0 8c0-2.80026 0-4.20039.544967-5.26995.479363-.94081 1.244273-1.70572 2.185083-2.185083 1.06956-.544967 2.46969-.544967 5.26995-.544967h124c2.8 0 4.2 0 5.27.544967.941.479363 1.706 1.244273 2.185 2.185083.545 1.06956.545 2.46969.545 5.26995v24c0 2.8003 0 4.2004-.545 5.27-.479.9408-1.244 1.7057-2.185 2.185-1.07.545-2.47.545-5.27.545h-124c-2.80026 0-4.20039 0-5.26995-.545-.94081-.4793-1.70572-1.2442-2.185083-2.185-.544967-1.0696-.544967-2.4697-.544967-5.27z" fill="#ff5b24"/><path clip-rule="evenodd" d="m102 18.0884c-.72-2.7477-2.4686-3.8384-4.8553-3.8384-1.9336 0-4.3605 1.0907-4.3605 3.7172 0 1.6968 1.1723 3.0304 3.0852 3.374l1.8103.323c1.2344.2221 1.5842.6869 1.5842 1.3132 0 .7071-.7612 1.111-1.8926 1.111-1.4809 0-2.4067-.5252-2.5508-2.0001l-2.6124.4042c.4112 2.8483 2.9619 4.0204 5.2658 4.0204 2.1808 0 4.5051-1.2528 4.5051-3.778 0-1.7174-1.049-2.9696-3.0034-3.3337l-1.9951-.3633c-1.1111-.202-1.4812-.7475-1.4812-1.2727 0-.6668.7198-1.0907 1.7073-1.0907 1.255 0 2.1395.4239 2.1806 1.8179zm-58.075 4.3229 2.7149-7.8584h3.1884l-4.7314 11.6565h-2.3654l-4.7315-11.6563h3.1884zm16.6834-4.5249c0 .9292-.7406 1.5756-1.6047 1.5756-.864 0-1.6043-.6464-1.6043-1.5756 0-.9294.7403-1.5756 1.6043-1.5756.8641 0 1.6049.6462 1.6049 1.5756zm.4936 4.1213c-1.0699 1.3734-2.2013 2.3229-4.1967 2.323-2.036 0-3.6204-1.2121-4.8546-2.9897-.4939-.7275-1.255-.889-1.8105-.5051-.5142.3637-.6374 1.1314-.1645 1.7982 1.7073 2.5656 4.0729 4.0602 6.8294 4.0602 2.5305 0 4.5055-1.2119 6.0481-3.2322.5759-.7473.5553-1.515 0-1.9393-.5144-.4044-1.2755-.2624-1.8512.4849zm7.098-1.6568c0 2.384 1.3989 3.6367 2.9625 3.6367 1.4809 0 3.0034-1.1719 3.0034-3.6367 0-2.4244-1.5225-3.5959-2.9831-3.5959-1.5839 0-2.9828 1.1111-2.9828 3.5959zm0-4.1815v-1.5964h-2.9004v15.677h2.9004v-5.576c.9669 1.2932 2.2217 1.8389 3.6409 1.8389 2.6541 0 5.2459-2.0608 5.2459-6.3031 0-4.061-2.6948-5.9596-4.9989-5.9596-1.8309 0-3.0855.8281-3.8879 1.9192zm13.9275 4.1815c0 2.384 1.3987 3.6367 2.9623 3.6367 1.4809 0 3.0032-1.1719 3.0032-3.6367 0-2.4244-1.5223-3.5959-2.9828-3.5959-1.584 0-2.9829 1.1111-2.9829 3.5959zm0-4.1815v-1.5964h-.0002-2.9004v15.677h2.9004v-5.576c.967 1.2932 2.2217 1.8389 3.641 1.8389 2.6539 0 5.2459-2.0608 5.2459-6.3031 0-4.061-2.6948-5.9596-4.999-5.9596-1.8309 0-3.0854.8281-3.8877 1.9192z" fill="#fff" fill-rule="evenodd"/></svg>